<svg width="126" height="36" viewBox="0 0 126 36" fill="none" xmlns="http://www.w3.org/2000/svg">
<path d="M35.72 32.52C35.5333 33.6667 35.2133 34.2933 34.76 34.4C34.12 34.56 32.8933 34.3867 31.08 33.88C29.16 33.3467 28.0667 32.8133 27.8 32.28C27.72 32.0933 27.68 31.8933 27.68 31.68C27.68 31.52 27.7067 31.2667 27.76 30.92C27.84 30.5467 27.88 30.24 27.88 30V11.84C26.6267 14.2933 24.9867 19.8133 22.96 28.4C22.9333 28.5067 22.92 28.6267 22.92 28.76C22.92 29.0267 22.96 29.4533 23.04 30.04C23.1467 30.6267 23.2 31 23.2 31.16C23.1733 31.9867 23.1333 32.52 23.08 32.76C22.9467 33.2933 22.6667 33.6133 22.24 33.72C21.9733 33.8 21.5067 33.84 20.84 33.84C17.3733 33.84 14.9867 33.24 13.68 32.04C13.4667 31.8533 13.3867 31.52 13.44 31.04C13.4933 30.4533 13.4933 30.0667 13.44 29.88C12.4533 26.84 11.5733 24.1733 10.8 21.88C8.93333 16.3333 7.72 13.0667 7.16 12.08V28C7.16 28.3467 7.26667 28.8267 7.48 29.44C7.74667 30.1867 7.89333 30.6533 7.92 30.84C8.02667 31.3733 8.05333 32.0133 8 32.76C7.94667 33.6667 7.76 34.2267 7.44 34.44C7.28 34.5467 6.97333 34.6 6.52 34.6C5.53333 34.6 4.36 34.4267 3 34.08C1.53333 33.7333 0.666667 33.3733 0.4 33C0.266667 32.8133 0.2 32.5867 0.2 32.32C0.2 32.16 0.24 31.8933 0.32 31.52C0.426667 31.1467 0.48 30.8533 0.48 30.64V2.28C0.48 1.96 0.613333 1.6 0.88 1.2C1.14667 0.773332 1.45333 0.493331 1.8 0.359998C2.25333 0.173332 4 0.493332 7.04 1.32C10.2133 2.14666 11.8933 2.86667 12.08 3.48C12.16 3.72 12.1733 4.04 12.12 4.44C12.04 5 12 5.33333 12 5.44C12 5.68 12.04 5.89333 12.12 6.08L17.52 20.6C18.2667 18.2267 19.6267 13.4133 21.6 6.16C22.5867 2.45333 23.3867 0.519998 24 0.359998C24.1867 0.306666 24.4 0.279999 24.64 0.279999C25.0933 0.279999 25.8533 0.399999 26.92 0.639999C28.0933 0.933332 28.9067 1.09333 29.36 1.12C31.4667 1.30667 32.68 1.42667 33 1.48C34.2533 1.72 34.96 2.16 35.12 2.8C35.1733 2.98667 35.2 3.18667 35.2 3.4C35.2 3.66667 35.1333 4.05333 35 4.56C34.8667 5.04 34.8 5.4 34.8 5.64V30.12C34.8 30.3867 34.96 30.7867 35.28 31.32C35.6267 31.8533 35.7733 32.2533 35.72 32.52ZM52.1834 10.36C53.6501 11.0533 54.7834 12.4533 55.5834 14.56C56.3034 16.48 56.6634 18.7467 56.6634 21.36C56.6634 24.96 56.0501 28.08 54.8234 30.72C53.4634 33.5467 51.7701 34.8267 49.7434 34.56C48.9968 34.3733 47.8768 34.1467 46.3834 33.88C45.2901 33.7467 44.3034 33.5467 43.4234 33.28C41.9034 32.88 40.6901 31.5867 39.7834 29.4C38.9568 27.3733 38.5434 25 38.5434 22.28C38.5434 19.5333 38.9701 17.04 39.8234 14.8C40.7834 12.3467 42.1301 10.6267 43.8634 9.64C44.1568 9.48 44.5568 9.4 45.0634 9.4C45.5968 9.4 46.6501 9.57333 48.2234 9.92C49.2368 9.92 50.5568 10.0667 52.1834 10.36ZM47.7034 13.96C46.9834 13.96 46.3168 14.84 45.7034 16.6C45.0901 18.3333 44.7834 20 44.7834 21.6C44.7834 23.52 45.0101 25.4133 45.4634 27.28C45.9701 29.3067 46.5568 30.4 47.2234 30.56C48.0768 30.7467 48.8368 29.7867 49.5034 27.68C50.1434 25.6533 50.4634 23.4133 50.4634 20.96C50.4634 19.6 50.2901 18.2533 49.9434 16.92C49.4634 14.9467 48.7168 13.96 47.7034 13.96ZM78.1275 11.2C77.0875 13.84 75.9008 17.88 74.5675 23.32C73.3675 28.2267 72.7808 31.0133 72.8075 31.68C72.8075 32.3467 72.8075 33 72.8075 33.64C72.7808 34.4933 72.4608 34.9867 71.8475 35.12C71.2342 35.2267 69.7808 34.9733 67.4875 34.36C65.2208 33.7467 63.9542 33.2533 63.6875 32.88C63.5542 32.6667 63.4875 32.3733 63.4875 32C63.4875 31.6267 63.4608 31.3733 63.4075 31.24C62.1808 27.3467 61.2875 24.1733 60.7275 21.72C60.0608 18.68 59.5808 15.32 59.2875 11.64C59.2875 11.56 59.2608 11.3333 59.2075 10.96C59.1542 10.6667 59.1275 10.4267 59.1275 10.24C59.1275 9.62667 59.3942 9.22667 59.9275 9.04C60.1675 8.96 61.1942 9.14666 63.0075 9.6C64.8208 10.0267 65.8075 10.4133 65.9675 10.76C66.0475 10.92 66.0875 11.1067 66.0875 11.32C66.0875 11.5867 66.0075 11.9333 65.8475 12.36C65.6875 12.76 65.6075 13.0267 65.6075 13.16C65.9008 15.24 66.1808 17.08 66.4475 18.68C67.0875 22.52 67.5942 24.8 67.9675 25.52C68.3675 23.2 69.0742 20.1867 70.0875 16.48C70.5675 14.6933 71.0608 12.9067 71.5675 11.12C71.6475 10.64 71.7275 10.16 71.8075 9.68C71.9942 9.14667 72.3275 8.81333 72.8075 8.68C73.1275 8.57333 73.9808 8.81333 75.3675 9.4C76.8875 10.04 77.8075 10.64 78.1275 11.2ZM89.0481 4.84C89.0748 4.89333 89.0881 5 89.0881 5.16C89.0881 5.74667 88.9681 6.50667 88.7281 7.44C88.4615 8.45333 88.2081 9.01333 87.9681 9.12C87.7015 9.22667 86.5548 8.94666 84.5281 8.28C82.5015 7.58666 81.4215 7.09333 81.2881 6.8C81.2081 6.66667 81.1681 6.46667 81.1681 6.2C81.1681 5.48 81.3548 4.72 81.7281 3.92C82.1548 3.01333 82.6348 2.50667 83.1681 2.4C83.7815 2.29333 84.8481 2.53333 86.3681 3.12C87.8881 3.68 88.7815 4.25333 89.0481 4.84ZM88.9281 32.48C89.0348 33.44 88.7015 34.04 87.9281 34.28C87.7948 34.3067 87.6081 34.32 87.3681 34.32C86.4081 34.32 85.2215 34.12 83.8081 33.72C82.2881 33.2933 81.3948 32.84 81.1281 32.36C80.9948 32.1467 81.1148 31.7333 81.4881 31.12C81.7281 30.72 81.8481 29.9867 81.8481 28.92V12.12C81.5281 11.1067 81.3681 10.4267 81.3681 10.08C81.3681 9.73333 81.8615 9.56 82.8481 9.56C83.6481 9.56 84.7548 9.81333 86.1681 10.32C87.6081 10.8 88.4748 11.2267 88.7681 11.6C88.8481 11.7067 88.8881 11.84 88.8881 12C88.8881 12.2133 88.7281 12.6133 88.4081 13.2C88.1148 13.7867 87.9681 14.2267 87.9681 14.52V30.6C87.9681 30.8667 88.1148 31.2 88.4081 31.6C88.7281 32 88.9015 32.2933 88.9281 32.48ZM107.098 26.28C107.338 26.68 106.818 27.8667 105.538 29.84C104.151 31.9467 102.791 33.3733 101.458 34.12C101.298 34.2 101.058 34.24 100.738 34.24C99.6975 34.24 98.3375 33.92 96.6575 33.28C94.8708 32.64 93.6975 31.9467 93.1375 31.2C91.5908 29.2 90.8175 26.4267 90.8175 22.88C90.8175 19.52 91.4975 16.56 92.8575 14C94.3242 11.2 96.1908 9.77333 98.4575 9.72C99.2842 9.69333 100.284 9.90667 101.458 10.36C102.898 10.92 104.084 11.68 105.018 12.64C105.258 12.88 105.484 13.6 105.698 14.8C105.964 16.08 106.098 17.3333 106.098 18.56C106.098 20.3733 105.804 21.6267 105.218 22.32C102.471 23.2 99.6708 23.6933 96.8175 23.8C96.7642 25.1067 96.9242 26.48 97.2975 27.92C97.6708 29.36 98.0575 30.0933 98.4575 30.12C98.9908 30.1467 99.6308 29.7067 100.378 28.8C101.044 28.0267 101.458 27.3733 101.618 26.84C101.804 26.04 102.058 25.2133 102.378 24.36C102.804 24.3067 103.644 24.52 104.898 25C106.151 25.48 106.884 25.9067 107.098 26.28ZM99.9775 14.04C99.5242 13.9867 98.8842 14.7067 98.0575 16.2C97.2575 17.6933 96.7908 19.12 96.6575 20.48C97.8575 20.4267 98.8175 20.1333 99.5375 19.6C99.9642 19.28 100.178 17.9467 100.178 15.6C100.178 14.6133 100.111 14.0933 99.9775 14.04ZM125.068 29.32C125.068 30.7867 124.574 31.96 123.588 32.84C122.628 33.72 121.268 34.1733 119.508 34.2C119.081 34.2 118.614 34.1333 118.108 34C117.201 33.76 116.721 33.6267 116.668 33.6C116.188 33.4933 115.694 33.3733 115.188 33.24C114.708 33.1333 114.294 32.9333 113.948 32.64C113.361 32.1067 112.788 31.3733 112.228 30.44C111.774 29.6933 111.334 28.9333 110.908 28.16C110.481 27.3867 110.268 26.92 110.268 26.76C110.268 26.3867 110.534 26.1067 111.068 25.92C111.201 25.8667 111.441 25.84 111.788 25.84C112.588 25.84 113.588 25.9333 114.788 26.12C116.014 26.28 116.681 26.4267 116.788 26.56C116.894 26.6667 117.041 27.4267 117.228 28.84C117.388 30.0667 117.668 30.68 118.068 30.68C118.681 30.68 118.988 29.8533 118.988 28.2C118.988 26.0933 118.428 24.7733 117.308 24.24C114.748 23.04 113.068 21.9733 112.268 21.04C111.281 19.8933 110.788 18.16 110.788 15.84C110.788 14.32 111.188 12.8933 111.988 11.56C112.788 10.2 113.734 9.38667 114.828 9.12C115.308 9.01333 116.854 9.52 119.468 10.64C119.708 10.72 120.414 10.8667 121.588 11.08C122.414 11.24 123.001 11.52 123.348 11.92C123.854 12.5333 124.148 13.5067 124.228 14.84C124.254 15.8267 124.268 16.8133 124.268 17.8C124.454 18.7067 124.548 19.24 124.548 19.4C124.548 20.1467 124.188 20.5733 123.468 20.68C123.094 20.7333 122.361 20.5867 121.268 20.24C120.068 19.84 119.308 19.4267 118.988 19C118.908 18.8933 118.828 17.8933 118.748 16C118.668 14.2133 118.481 13.32 118.188 13.32C117.788 13.32 117.414 13.84 117.068 14.88C116.721 15.92 116.548 17 116.548 18.12C116.548 19.5333 116.854 20.4267 117.468 20.8C118.774 21.52 120.068 22.2533 121.348 23C122.654 23.72 123.561 24.4667 124.068 25.24C124.734 26.2533 125.068 27.6133 125.068 29.32Z" fill="#640BA7"/>
</svg>
